<?xml version="1.0" standalone="no"?>
<!DOCTYPE svg PUBLIC "-//W3C//DTD SVG 20010904//EN"
 "http://www.w3.org/TR/2001/REC-SVG-20010904/DTD/svg10.dtd">
<svg version="1.0" xmlns="http://www.w3.org/2000/svg"
 width="1040.000000pt" height="1040.000000pt" viewBox="0 0 1040.000000 1040.000000"
 preserveAspectRatio="xMidYMid meet">
<metadata>
Created by potrace 1.14, written by Peter Selinger 2001-2017
</metadata>
<g transform="translate(0.000000,1040.000000) scale(0.100000,-0.100000)"
fill="#000000" stroke="none">
<path d="M5008 9564 c-2 -1 -23 -5 -48 -7 -25 -3 -45 -6 -45 -7 0 -1 -16 -3
-35 -5 -19 -2 -48 -6 -65 -10 -16 -4 -38 -7 -47 -8 -10 -1 -18 -5 -18 -10 0
-4 -4 -6 -9 -3 -7 5 -141 -29 -201 -50 -8 -3 -16 -5 -17 -5 -2 0 -23 -8 -47
-19 -24 -10 -47 -16 -50 -13 -3 4 -6 1 -6 -5 0 -7 -6 -12 -13 -12 -14 0 -109
-44 -187 -85 -25 -14 -64 -34 -87 -47 -24 -12 -43 -26 -43 -30 0 -4 -6 -8 -13
-8 -8 0 -22 -9 -32 -20 -10 -11 -24 -20 -31 -20 -7 0 -18 -8 -23 -17 -6 -10
-11 -15 -11 -11 0 4 -8 1 -17 -6 -10 -8 -47 -38 -83 -67 -143 -116 -326 -320
-422 -469 -58 -90 -118 -195 -118 -207 0 -6 -7 -16 -15 -23 -9 -7 -13 -15 -11
-18 3 -2 0 -14 -6 -26 -7 -11 -13 -23 -14 -26 -1 -6 -32 -78 -44 -105 -10 -22
-39 -107 -45 -134 -3 -9 -13 -50 -24 -91 -11 -41 -23 -91 -26 -110 -3 -20 -8
-47 -11 -60 -34 -158 -36 -518 -4 -665 5 -22 12 -60 15 -85 4 -24 10 -51 14
-60 4 -8 7 -22 6 -30 -1 -8 2 -22 6 -31 5 -9 10 -27 13 -40 4 -23 30 -107 43
-139 4 -8 7 -17 8 -20 16 -45 69 -167 76 -174 5 -6 9 -18 9 -28 0 -10 5 -18
10 -18 6 0 10 -4 10 -8 0 -8 45 -92 73 -136 28 -46 122 -182 132 -192 5 -6 21
-25 35 -43 36 -47 217 -230 269 -271 24 -19 52 -43 63 -52 10 -10 18 -16 18
-13 0 3 12 -6 27 -20 15 -14 31 -25 35 -25 3 0 13 -6 20 -13 7 -6 42 -30 78
-51 36 -22 67 -43 68 -48 2 -4 9 -8 17 -8 7 0 41 -16 77 -36 71 -39 100 -79
94 -129 -2 -16 -4 -35 -5 -41 -2 -21 -65 -74 -98 -83 -62 -17 -97 2 -213 117
-124 124 -173 168 -224 202 -20 14 -36 28 -36 33 0 4 -6 7 -14 7 -8 0 -16 3
-18 8 -12 29 -271 173 -418 232 -30 12 -64 26 -75 30 -23 10 -125 43 -140 46
-5 1 -28 6 -50 12 -22 6 -51 13 -65 16 -14 3 -50 10 -80 16 -69 14 -118 20
-196 24 -34 2 -66 5 -70 8 -18 9 -319 -4 -389 -17 -16 -3 -43 -8 -60 -10 -41
-6 -75 -12 -105 -19 -14 -4 -38 -9 -55 -12 -16 -2 -82 -23 -145 -45 -63 -22
-122 -41 -131 -43 -9 -3 -25 -9 -35 -14 -11 -6 -65 -33 -122 -61 -122 -61
-214 -117 -300 -183 -34 -27 -62 -47 -62 -45 0 15 -223 -203 -290 -283 -30
-36 -58 -67 -61 -70 -16 -13 -140 -203 -174 -265 -20 -39 -40 -74 -45 -80 -6
-8 -27 -58 -90 -210 -4 -11 -15 -40 -23 -65 -36 -107 -47 -151 -42 -160 3 -5
1 -11 -4 -14 -5 -3 -12 -27 -16 -53 -5 -27 -10 -55 -11 -63 -2 -8 -6 -33 -9
-55 -3 -22 -8 -56 -11 -75 -3 -19 -7 -85 -9 -147 -1 -61 -6 -116 -10 -122 -3
-6 -3 -16 1 -22 4 -7 8 -42 10 -78 3 -78 17 -202 28 -251 9 -40 18 -89 18 -97
0 -5 4 -15 9 -24 4 -9 11 -31 14 -48 14 -79 117 -345 157 -402 9 -14 15 -28
12 -31 -2 -3 2 -11 11 -18 8 -7 15 -17 15 -21 0 -12 82 -143 92 -147 4 -2 8
-10 8 -17 0 -7 3 -15 8 -17 4 -1 34 -38 66 -81 94 -124 273 -300 397 -389 24
-17 47 -36 51 -42 5 -7 8 -7 8 -1 0 6 3 6 8 0 9 -14 139 -95 151 -95 5 0 11
-3 13 -8 3 -7 102 -57 203 -102 45 -21 166 -65 205 -75 15 -5 91 -23 122 -31
10 -2 28 -7 40 -10 26 -6 44 -10 103 -19 22 -3 49 -7 60 -10 104 -22 487 -22
565 0 8 2 33 6 55 9 32 5 128 24 155 31 116 31 184 52 260 82 69 27 252 113
260 122 3 3 18 13 35 21 16 8 63 38 103 65 41 28 81 55 90 60 9 6 21 15 28 20
6 6 36 30 65 55 72 59 228 215 264 265 17 22 40 49 53 61 12 12 22 26 22 32 0
6 3 12 8 14 4 2 26 32 49 68 24 36 46 70 50 76 20 27 106 195 138 269 10 22
23 53 30 70 8 16 11 33 9 37 -3 4 0 8 5 8 6 0 10 3 10 7 -1 5 0 10 1 13 2 5 5
19 14 55 2 11 11 40 20 65 8 25 17 59 20 75 2 17 5 30 6 30 2 0 4 9 5 20 2 11
6 34 9 50 16 81 26 159 31 255 4 58 8 117 9 131 13 98 119 151 213 107 34 -16
48 -31 67 -71 26 -55 40 -137 23 -137 -5 0 -5 -5 2 -13 6 -8 9 -16 6 -19 -3
-3 -7 -30 -10 -61 -6 -88 -17 -189 -21 -212 -2 -11 -6 -42 -9 -70 -3 -27 -7
-61 -10 -75 -3 -14 -8 -45 -11 -70 -3 -25 -8 -54 -10 -65 -2 -10 -6 -37 -9
-60 -3 -22 -12 -80 -20 -130 -14 -86 -17 -106 -31 -185 -3 -19 -8 -46 -10 -60
-2 -14 -6 -36 -9 -50 -3 -14 -8 -45 -11 -70 -3 -25 -8 -48 -10 -51 -2 -3 -5
-19 -8 -35 -6 -36 -19 -117 -21 -124 -1 -3 -5 -25 -9 -50 -5 -25 -10 -54 -12
-65 -9 -39 -25 -120 -29 -145 -3 -14 -9 -47 -15 -75 -6 -27 -12 -61 -14 -75
-11 -65 -17 -94 -20 -99 -2 -3 -7 -22 -10 -41 -3 -19 -8 -44 -10 -55 -3 -11
-21 -94 -41 -185 -20 -91 -39 -173 -41 -183 -5 -20 -14 -58 -18 -72 -1 -5 -9
-37 -16 -70 -17 -74 -17 -74 -20 -77 -1 -2 -3 -10 -5 -18 -13 -69 -68 -262
-91 -322 -7 -21 -12 -38 -9 -38 3 0 -1 -13 -10 -29 -8 -17 -17 -38 -18 -48 -4
-20 -22 -65 -38 -94 -9 -17 -7 -19 13 -15 40 7 82 17 98 23 8 3 25 5 38 4 12
-1 22 1 22 6 0 4 15 8 33 9 17 0 50 4 72 8 61 11 251 35 335 44 148 14 531 7
650 -12 14 -2 52 -8 85 -11 33 -4 70 -9 82 -10 24 -3 94 -15 128 -21 11 -2 45
-8 75 -14 63 -12 86 -17 118 -26 24 -7 24 -6 9 22 -8 16 -27 65 -42 109 -14
44 -29 87 -32 95 -3 8 -7 20 -8 25 -2 6 -15 51 -29 101 -15 50 -29 100 -31
110 -2 10 -13 55 -25 98 -11 44 -22 89 -25 100 -2 12 -14 59 -25 106 -29 124
-52 223 -54 240 -2 8 -5 24 -9 35 -3 11 -9 36 -12 55 -3 19 -11 55 -16 80 -6
25 -13 54 -15 65 -3 11 -6 34 -8 50 -2 17 -6 37 -9 45 -3 8 -8 29 -11 45 -3
17 -7 41 -10 55 -8 41 -16 83 -22 120 -3 19 -9 49 -14 65 -5 17 -13 59 -19 95
-6 36 -13 74 -15 85 -2 11 -7 40 -11 65 -4 25 -10 54 -12 65 -3 11 -6 32 -7
48 0 15 -3 27 -6 27 -3 0 -6 8 -6 18 -1 9 -4 36 -8 59 -4 23 -9 55 -11 70 -4
27 -8 48 -21 123 -8 43 -13 76 -18 115 -2 17 -6 44 -10 60 -4 17 -9 46 -11 65
-2 19 -6 51 -9 70 -3 19 -8 55 -11 80 -3 25 -7 56 -10 70 -2 14 -7 48 -10 75
-3 28 -8 64 -10 80 -19 129 -21 265 -5 321 12 43 66 105 97 111 68 14 104 8
138 -20 49 -40 62 -71 64 -155 1 -40 4 -88 6 -105 16 -151 19 -172 36 -245 5
-24 7 -47 4 -52 -3 -4 -1 -10 4 -12 5 -1 10 -16 12 -33 2 -16 7 -36 12 -42 5
-7 6 -13 3 -13 -4 0 -2 -9 4 -21 7 -11 14 -31 16 -45 2 -13 9 -36 15 -51 6
-16 10 -29 10 -30 0 -2 7 -20 16 -40 21 -52 34 -87 34 -93 0 -3 8 -13 16 -22
9 -10 13 -18 10 -18 -7 0 32 -80 42 -90 4 -3 14 -22 24 -43 18 -40 122 -200
164 -252 70 -88 96 -117 178 -200 100 -99 140 -136 200 -180 22 -17 42 -33 43
-37 2 -5 10 -8 17 -8 7 0 15 -4 17 -8 6 -15 158 -109 242 -150 28 -14 53 -29
56 -32 3 -4 14 -9 25 -13 11 -3 54 -20 95 -37 41 -18 98 -38 125 -46 28 -8 57
-18 65 -21 8 -4 22 -8 30 -9 21 -4 42 -10 60 -17 16 -6 157 -32 224 -42 234
-33 569 -17 761 37 35 10 51 14 90 22 6 1 15 4 20 8 6 3 26 9 45 13 19 4 41
12 49 19 8 6 16 9 18 7 4 -4 46 12 113 41 57 26 83 36 94 36 5 0 12 4 15 9 3
4 24 17 46 28 22 11 66 37 98 58 32 20 61 37 64 37 5 0 103 69 113 80 3 3 21
16 40 30 19 13 48 35 63 50 57 51 233 228 254 256 12 16 37 47 54 69 37 48
126 182 162 245 110 195 198 440 233 649 3 18 7 43 10 55 7 37 15 112 19 193
2 43 5 80 6 83 1 3 1 9 0 14 -1 5 -4 59 -6 120 -5 115 -8 152 -20 221 -3 22
-8 49 -10 60 -3 18 -17 89 -21 108 -1 4 -2 8 -4 10 -1 1 -3 9 -5 17 -16 78
-71 239 -113 330 -14 30 -25 58 -24 62 1 3 -5 12 -13 18 -8 7 -15 21 -15 31 0
10 -4 20 -9 23 -5 3 -18 24 -29 45 -33 63 -46 84 -64 105 -10 11 -18 23 -18
28 0 4 -33 52 -74 106 -92 120 -251 283 -361 370 -63 49 -138 103 -170 122
-22 13 -42 26 -45 30 -11 12 -173 96 -260 134 -58 25 -194 75 -220 81 -8 2
-27 8 -42 14 -16 6 -28 9 -28 7 0 -2 -21 2 -46 10 -26 7 -50 11 -54 9 -5 -3
-11 -2 -14 3 -2 4 -17 9 -33 10 -30 3 -68 9 -68 12 0 1 -20 4 -45 6 -25 2 -65
6 -90 9 -75 9 -105 9 -118 1 -7 -4 -12 -3 -12 1 0 10 -104 9 -235 -2 -49 -4
-100 -8 -112 -9 -13 0 -23 -3 -23 -6 0 -3 -15 -6 -34 -7 -64 -3 -257 -55 -374
-100 -64 -25 -125 -47 -134 -50 -10 -3 -18 -9 -18 -14 0 -5 -3 -8 -7 -7 -32 8
-327 -173 -408 -249 -8 -7 -16 -13 -20 -13 -9 0 -80 -65 -185 -171 -126 -127
-166 -145 -238 -108 -102 52 -106 185 -7 230 22 11 106 58 187 105 69 41 186
127 262 194 55 48 183 176 229 230 54 63 157 206 157 218 0 6 4 12 8 14 16 7
138 228 125 228 -4 0 -3 4 3 8 18 11 116 269 129 340 2 9 4 17 5 17 1 0 3 7 5
15 20 100 35 181 40 205 17 105 24 382 11 485 -4 30 -9 75 -11 100 -2 25 -6
52 -9 60 -3 8 -7 34 -10 57 -2 23 -7 47 -11 53 -4 6 -8 21 -10 33 -3 26 -21
94 -42 157 -48 146 -180 427 -205 438 -5 2 -8 8 -8 13 0 12 -90 143 -101 147
-5 2 -9 8 -9 14 0 9 -11 23 -62 79 -10 10 -16 19 -12 19 12 0 -205 209 -276
265 -41 33 -76 63 -78 68 -2 4 -9 7 -17 7 -7 0 -18 7 -25 15 -22 27 -330 202
-330 188 0 -3 -10 1 -22 9 -66 43 -453 158 -478 143 -6 -3 -10 -2 -10 3 0 4
-12 9 -27 10 -58 3 -100 9 -113 17 -9 6 -11 4 -5 -6 7 -11 6 -12 -6 -3 -12 10
-382 18 -391 8z"/>
</g>
</svg>
