<?xml version="1.0" encoding="UTF-8" standalone="no"?>
<!-- Created with Inkscape (http://www.inkscape.org/) -->
<svg
   xmlns:dc="http://purl.org/dc/elements/1.1/"
   xmlns:cc="http://creativecommons.org/ns#"
   xmlns:rdf="http://www.w3.org/1999/02/22-rdf-syntax-ns#"
   xmlns:svg="http://www.w3.org/2000/svg"
   xmlns="http://www.w3.org/2000/svg"
   xmlns:sodipodi="http://sodipodi.sourceforge.net/DTD/sodipodi-0.dtd"
   xmlns:inkscape="http://www.inkscape.org/namespaces/inkscape"
   width="240"
   height="260"
   id="svg2"
   sodipodi:version="0.32"
   inkscape:version="0.46"
   version="1.0"
   sodipodi:docbase="C:\Documents and Settings\Flanker\Desktop\Temporanei\SVG\Piacentine SVG"
   sodipodi:docname="SuitSpades.svg"
   inkscape:output_extension="org.inkscape.output.svg.inkscape">
  <defs
     id="defs4" />
  <sodipodi:namedview
     id="base"
     pagecolor="#ffffff"
     bordercolor="#666666"
     borderopacity="1.0"
     inkscape:pageopacity="0.0"
     inkscape:pageshadow="2"
     inkscape:zoom="2.6115385"
     inkscape:cx="120"
     inkscape:cy="130"
     inkscape:document-units="px"
     inkscape:current-layer="layer1"
     inkscape:showpageshadow="false"
     width="240px"
     height="260px"
     inkscape:window-width="1280"
     inkscape:window-height="885"
     inkscape:window-x="132"
     inkscape:window-y="0"
     showgrid="false" />
  <metadata
     id="metadata7">
    <rdf:RDF>
      <cc:Work
         rdf:about="">
        <dc:format>image/svg+xml</dc:format>
        <dc:type
           rdf:resource="http://purl.org/dc/dcmitype/StillImage" />
      </cc:Work>
    </rdf:RDF>
  </metadata>
  <g
     inkscape:label="Livello 1"
     inkscape:groupmode="layer"
     id="layer1"
     transform="translate(-300.375,-343.5)">
    <path
       style="fill:#000000;fill-opacity:1;fill-rule:nonzero;stroke:none;stroke-width:1;stroke-linecap:round;stroke-linejoin:round;stroke-miterlimit:4;stroke-dasharray:3, 3;stroke-dashoffset:0;stroke-opacity:1"
       d="M 420.37498,349.55102 C 360.40052,390.08152 320.37505,467.57634 320.375,514.71623 C 320.375,539.21657 340.29885,560.81235 366.92151,560.81235 C 388.48053,560.81235 406.86151,541.23743 406.86146,514.26579 C 406.86146,510.20054 408.9958,508.40994 410.76536,508.40994 C 413.08604,508.40994 415.42002,511.71285 415.42002,518.01954 C 415.42002,533.65083 407.57185,573.31705 396.95155,597.44898 C 403.08128,595.63666 411.25603,593.8454 420.37498,593.8454 C 429.49402,593.8454 437.81882,595.63666 443.94856,597.44898 C 433.32825,573.31705 425.48008,533.65083 425.48008,518.01954 C 425.48008,511.71285 427.81406,508.40994 430.13474,508.40994 C 431.9043,508.40994 433.88849,510.20054 433.88849,514.26579 C 433.88854,541.23743 452.41957,560.81235 473.97859,560.81235 C 500.60125,560.81235 520.375,539.21657 520.375,514.71623 C 520.37505,467.57634 480.34948,390.08152 420.37498,349.55102 z"
       id="path2401" />
  </g>
</svg>
